<?xml version="1.0" encoding="iso-8859-1"?>
<!-- Generator: Adobe Illustrator 19.0.0, SVG Export Plug-In . SVG Version: 6.00 Build 0)  -->
<svg version="1.1" id="Layer_1" xmlns="http://www.w3.org/2000/svg" xmlns:xlink="http://www.w3.org/1999/xlink" x="0px" y="0px"
	 viewBox="0 0 289.94 289.94" style="enable-background:new 0 0 289.94 289.94;" xml:space="preserve">
<g>
	<path style="fill:#E89C25;" d="M144.97,0C64.901,0,0,64.91,0,144.97s64.901,144.97,144.97,144.97s144.97-64.91,144.97-144.97
		S225.038,0,144.97,0z M144.97,199.333c-30.018,0-54.364-24.337-54.364-54.364s24.346-54.364,54.364-54.364
		s54.364,24.337,54.364,54.364S174.987,199.333,144.97,199.333z"/>
	<path style="fill:#7A482E;" d="M288.725,162.801c0.725-5.853,1.214-11.761,1.214-17.795c-0.009-23.032-5.509-44.732-15.05-64.068
		C251.232,33.035,202.015,0,144.97,0C64.901,0,0,64.91,0,144.97c0,2.972,0.272,5.889,0.444,8.825
		c5.962-0.217,12.404-0.77,18.139-1.848c40.755-7.557,44.687-19.326,76.607-28.813c8.435-19.145,27.526-32.528,49.779-32.528
		c30.018,0,54.364,24.337,54.364,54.364l-0.063,1.232C224.322,160.726,280.036,162.593,288.725,162.801z"/>
	<path style="fill:#946C57;" d="M144.97,41.942c62.554,0,113.584,48.809,117.416,110.413c0.154-2.464,0.371-4.902,0.371-7.384
		c0-65.055-52.733-117.788-117.788-117.788S27.182,79.915,27.182,144.97c0,2.483,0.217,4.92,0.371,7.375
		C31.386,90.751,82.406,41.942,144.97,41.942z"/>
	<g>
		<path style="fill:#BB7E1F;" d="M208.394,135.909c0-30.027-24.346-54.364-54.364-54.364c-17.315,0-32.709,8.118-42.675,20.749
			c9.26-7.303,20.921-11.688,33.615-11.688c30.018,0,54.364,24.337,54.364,54.364c0,12.703-4.385,24.355-11.688,33.615
			C200.267,168.627,208.394,153.233,208.394,135.909z M154.03,280.879c-80.069,0-144.97-64.91-144.97-144.97
			c0-37.728,14.533-71.968,38.145-97.764C18.266,64.647,0,102.62,0,144.97c0,80.06,64.901,144.97,144.97,144.97
			c42.34,0,80.313-18.266,106.825-47.206C225.999,266.346,191.759,280.879,154.03,280.879z"/>
	</g>
	<path style="fill:#623A25;" d="M199.27,146.202c2.193,1.278,4.684,2.419,7.294,3.497c1.16-4.413,1.83-9.015,1.83-13.79
		c0-30.027-24.346-54.364-54.364-54.364c-17.315,0-32.709,8.118-42.675,20.749l1.223-0.806c1.567-1.178,3.198-2.256,4.884-3.253
		l2.338-1.323c1.731-0.915,3.525-1.703,5.355-2.419l2.564-0.997c1.93-0.652,3.932-1.133,5.953-1.567l2.474-0.562
		c2.881-0.48,5.817-0.761,8.825-0.761c30.018,0,54.364,24.337,54.364,54.364L199.27,146.202z"/>
	<path style="fill:#623A25;" d="M10.175,153.106c-0.67-5.654-1.114-11.371-1.114-17.197c0-37.728,14.533-71.968,38.145-97.764
		c-3.606,3.298-7.04,6.786-10.302,10.42l-0.063,0.072c-3.171,3.552-6.161,7.276-8.979,11.135l-0.362,0.48
		c-2.655,3.67-5.119,7.475-7.439,11.38l-0.707,1.178c-2.129,3.67-4.041,7.457-5.844,11.326l-0.979,2.03
		c-1.613,3.606-3.008,7.321-4.322,11.072l-1.078,2.936c-1.151,3.534-2.075,7.167-2.963,10.818l-0.951,3.715
		c-0.77,3.624-1.305,7.348-1.794,11.063l-0.589,3.896C0.29,134.686,0,139.796,0,144.97c0,2.972,0.272,5.889,0.444,8.825
		C3.615,153.677,6.913,153.45,10.175,153.106z"/>
</g>
<g>
</g>
<g>
</g>
<g>
</g>
<g>
</g>
<g>
</g>
<g>
</g>
<g>
</g>
<g>
</g>
<g>
</g>
<g>
</g>
<g>
</g>
<g>
</g>
<g>
</g>
<g>
</g>
<g>
</g>
</svg>
