<?xml version="1.0" standalone="no"?>
<!DOCTYPE svg PUBLIC "-//W3C//DTD SVG 20010904//EN"
 "http://www.w3.org/TR/2001/REC-SVG-20010904/DTD/svg10.dtd">
<svg version="1.0" xmlns="http://www.w3.org/2000/svg"
 width="1566.000000pt" height="1566.000000pt" viewBox="0 0 1566.000000 1566.000000"
 preserveAspectRatio="xMidYMid meet">
<metadata>
Created by potrace 1.14, written by Peter Selinger 2001-2017
</metadata>
<g transform="translate(0.000000,1566.000000) scale(0.100000,-0.100000)"
fill="#000000" stroke="none">
<path d="M7699 14376 c-2 -2 -35 -6 -74 -10 -143 -11 -408 -77 -510 -126 -11
-5 -58 -27 -105 -48 -130 -59 -313 -175 -420 -267 -42 -36 -195 -189 -230
-230 -111 -131 -225 -314 -295 -472 -25 -57 -45 -109 -45 -116 0 -7 -4 -17 -9
-22 -6 -6 -12 -21 -15 -35 -3 -14 -16 -65 -30 -114 -14 -49 -28 -107 -31 -130
-3 -23 -8 -48 -10 -56 -5 -21 -13 -91 -20 -180 -4 -41 -7 -75 -8 -76 -1 -2
-25 19 -53 45 -29 27 -72 63 -97 81 -28 20 -48 43 -51 59 -6 27 -7 36 -26 156
-6 39 -13 81 -15 95 -6 37 -65 449 -71 495 -2 22 -7 51 -9 65 -3 14 -7 45 -10
70 -3 25 -7 56 -10 70 -5 30 -12 77 -20 145 -3 28 -9 68 -12 90 -3 22 -6 54
-8 70 -3 30 -21 171 -30 232 -3 18 -8 57 -11 85 -4 29 -8 55 -10 57 -2 3 -82
-11 -177 -29 -94 -19 -176 -35 -182 -36 -5 -1 -59 -12 -120 -24 -60 -12 -121
-24 -135 -26 -14 -3 -106 -21 -205 -40 -99 -20 -191 -38 -205 -41 -38 -6 -692
-134 -715 -139 -11 -3 -31 -6 -45 -8 -14 -2 -119 -23 -233 -46 -114 -23 -216
-43 -225 -45 -9 -1 -55 -10 -102 -19 -47 -9 -96 -18 -110 -21 -14 -3 -38 -8
-55 -10 -16 -3 -37 -8 -46 -11 -10 -2 -30 -6 -45 -9 -43 -6 -187 -34 -189 -37
-2 -2 6 -59 16 -128 11 -69 21 -136 23 -150 2 -14 6 -41 10 -60 3 -19 8 -52
11 -73 8 -59 73 -451 95 -572 11 -60 29 -159 40 -220 11 -60 22 -126 25 -145
3 -19 16 -87 28 -150 l23 -115 -35 -55 c-50 -79 -133 -251 -169 -350 -127
-349 -151 -726 -71 -1092 63 -286 206 -578 398 -810 40 -49 66 -88 59 -89 -7
-1 -31 -2 -53 -4 -84 -7 -173 -19 -225 -31 -14 -3 -36 -8 -50 -10 -94 -15
-316 -94 -445 -159 -100 -50 -255 -143 -275 -165 -3 -3 -32 -25 -64 -50 -59
-44 -225 -204 -278 -267 -244 -289 -400 -654 -447 -1043 -9 -79 -7 -383 4
-460 92 -657 498 -1217 1087 -1499 190 -91 417 -157 608 -177 30 -3 69 -7 85
-9 17 -2 40 -4 53 -4 20 -1 15 -9 -39 -73 -87 -103 -191 -264 -254 -393 -49
-99 -124 -304 -140 -380 -40 -192 -58 -333 -58 -469 0 -60 11 -230 17 -264 2
-9 7 -37 11 -62 43 -266 146 -525 299 -753 67 -99 78 -114 146 -191 289 -330
659 -547 1075 -631 159 -32 224 -39 385 -39 239 0 401 25 613 95 48 16 92 29
97 29 5 0 15 -19 21 -42 48 -168 448 -1350 462 -1364 5 -5 314 83 604 172 45
14 90 27 100 29 10 2 74 21 143 41 l126 36 89 -55 c243 -147 522 -244 802
-276 126 -15 422 -5 543 18 171 32 207 42 345 93 264 98 497 248 695 447 47
47 96 100 110 116 249 298 402 651 447 1030 4 33 7 77 7 97 1 35 2 36 21 20
11 -9 25 -21 30 -27 6 -5 37 -31 70 -56 287 -221 635 -359 997 -397 85 -9 325
-8 402 2 137 17 345 63 416 93 8 3 20 7 25 8 26 6 177 73 245 108 72 38 239
142 250 156 3 4 16 14 30 23 14 9 54 41 89 72 l64 55 126 -5 c69 -3 207 -6
305 -7 l179 -2 33 185 c18 102 35 201 38 220 6 39 20 117 35 200 6 30 13 69
16 85 37 211 68 391 76 435 5 30 11 66 14 80 3 14 9 51 15 82 6 32 12 70 15
85 9 52 27 158 30 178 5 31 15 86 25 140 5 28 12 66 16 85 3 19 7 40 8 45 2 6
6 33 10 60 4 28 10 61 12 75 3 14 13 72 24 130 20 110 47 263 56 315 4 26 30
170 39 218 2 9 -2 17 -8 18 -7 0 -25 2 -42 3 -16 2 -88 6 -160 11 -71 4 -152
9 -180 11 -27 2 -97 6 -155 9 -58 3 -125 8 -150 10 -25 2 -88 7 -140 10 -83 5
-98 9 -120 30 -23 23 -23 25 -5 26 201 11 465 65 600 123 17 7 56 23 87 35
121 48 350 189 473 292 77 64 233 228 292 306 199 264 328 558 377 863 29 176
29 487 1 635 -70 368 -212 676 -433 938 -107 127 -318 310 -457 396 -73 44
-279 144 -360 174 -123 45 -304 88 -422 101 -124 14 -158 18 -161 20 -1 2 9
14 23 28 13 14 52 61 85 104 33 43 63 84 68 89 19 23 102 166 134 230 103 204
174 451 195 675 13 136 6 400 -12 483 -2 12 -6 36 -9 52 -2 17 -11 62 -20 100
-132 561 -513 1042 -1026 1293 -63 31 -117 57 -120 58 -3 0 -17 6 -31 12 -64
26 -181 63 -259 81 -124 29 -183 38 -290 47 -89 7 -277 7 -340 -1 -200 -24
-302 -46 -465 -102 -140 -49 -305 -131 -432 -216 -111 -74 -125 -85 -197 -149
-22 -20 -42 -36 -43 -34 -1 1 -5 33 -8 71 -3 39 -8 86 -11 105 -3 19 -7 49 -9
67 -3 18 -16 79 -29 135 -160 675 -680 1219 -1350 1413 -165 47 -298 66 -492
71 -100 2 -183 2 -185 0z m-1135 -3396 c16 -14 34 -30 40 -35 76 -70 243 -177
381 -245 191 -94 429 -164 642 -189 76 -9 408 -7 448 2 11 2 43 8 70 11 28 4
59 10 70 13 11 3 -92 -107 -230 -244 -378 -378 -831 -842 -997 -1024 -12 -14
-66 -72 -118 -129 -129 -141 -134 -146 -204 -224 -33 -38 -73 -82 -89 -98 -15
-17 -38 -44 -52 -60 -14 -17 -27 -29 -29 -27 -3 4 -64 248 -70 284 -2 11 -13
59 -25 108 -12 48 -30 126 -42 175 -20 85 -25 106 -33 147 -2 11 -9 38 -15 61
-6 22 -15 63 -21 90 -9 47 -37 172 -45 204 -2 8 -11 49 -20 90 -9 41 -19 84
-22 95 -9 36 -5 51 28 106 35 59 122 234 132 265 3 10 15 44 27 74 43 114 83
283 96 400 3 36 8 72 9 80 2 8 4 39 4 69 1 59 -3 59 65 1z m4311 -1824 c33 -3
77 -7 98 -8 37 -2 49 -20 24 -35 -11 -7 -45 -47 -120 -143 -69 -88 -176 -279
-233 -417 -60 -144 -114 -354 -131 -508 -10 -88 -10 -358 -1 -447 28 -255 128
-549 266 -778 48 -79 160 -233 211 -287 l30 -33 -27 0 c-25 -1 -102 -7 -177
-15 -70 -7 -248 -49 -345 -81 -129 -43 -337 -144 -449 -218 -67 -45 -90 -55
-115 -52 -47 7 -422 75 -503 91 -39 8 -89 18 -110 21 -52 8 -484 96 -663 134
-80 17 -154 33 -165 36 -11 2 -51 11 -90 19 -234 52 -300 67 -303 69 -2 2 15
26 66 91 4 6 25 35 47 65 22 30 42 57 45 60 3 3 17 21 30 40 13 19 27 37 30
40 3 3 41 50 85 105 64 82 217 264 260 311 6 6 46 51 90 99 262 291 622 647
980 970 49 44 96 87 105 95 16 15 130 114 180 156 14 12 48 41 76 65 28 24 92
78 143 119 51 41 98 80 105 85 6 6 40 33 76 60 36 28 67 53 70 56 3 4 46 37
95 75 50 37 121 92 158 120 38 29 76 51 85 49 9 -1 44 -6 77 -9z"/>
</g>
</svg>
