<?xml version="1.0" standalone="no"?>
<!DOCTYPE svg PUBLIC "-//W3C//DTD SVG 20010904//EN"
 "http://www.w3.org/TR/2001/REC-SVG-20010904/DTD/svg10.dtd">
<svg version="1.0" xmlns="http://www.w3.org/2000/svg"
 width="700.000000pt" height="700.000000pt" viewBox="0 0 700.000000 700.000000"
 preserveAspectRatio="xMidYMid meet">
<metadata>
Created by potrace 1.14, written by Peter Selinger 2001-2017
</metadata>
<g transform="translate(0.000000,700.000000) scale(0.100000,-0.100000)"
fill="#000000" stroke="none">
<path d="M3200 6990 c-294 -30 -534 -79 -787 -161 -798 -259 -1487 -811 -1922
-1538 -251 -419 -405 -876 -473 -1396 -14 -111 -18 -577 -5 -715 95 -1045 661
-1999 1537 -2588 244 -165 540 -311 823 -407 118 -40 322 -96 395 -110 15 -3
38 -7 52 -10 223 -46 388 -60 685 -60 292 0 370 6 620 51 760 135 1469 533
1985 1113 36 41 70 79 76 85 6 6 48 61 94 121 150 197 277 405 383 628 26 53
47 99 47 102 0 2 11 28 24 57 57 127 151 421 182 573 66 318 83 498 79 815 -5
395 -53 691 -172 1049 -420 1267 -1544 2202 -2853 2371 -41 5 -93 12 -115 15
-65 9 -573 13 -655 5z m547 -2204 c640 -127 1091 -699 1060 -1345 -3 -64 -8
-128 -11 -143 -3 -16 -8 -38 -10 -50 -8 -47 -19 -85 -43 -158 -133 -407 -473
-736 -878 -850 -93 -26 -104 -28 -227 -45 -42 -6 -233 -6 -276 0 -97 13 -122
18 -177 31 -228 57 -441 178 -610 349 -256 256 -386 571 -385 925 0 129 6 175
34 305 11 52 39 141 47 150 5 5 9 16 9 24 0 18 70 155 117 228 199 312 532
525 918 589 101 17 321 11 432 -10z"/>
</g>
</svg>
